<svg><g id="purple">
                  <path fill="#684A5C" d="M373.6 357.8s-26-31.6 12.5-47.3c0 0 27.5-8.4 37.4 7 0 0 14.7 21.3 17.2 40.4 0 0-1.1 18.3-31.2 17 0-.1-23.8 1.2-35.9-17.1z" />
                  <path opacity=".2" fill="#422034" d="M438.2 362.3s-10 14.7-26.4 11.9c-16.4-2.8-17.8-4.8-13.8-8.3 4.1-3.6 24.3 5.4 34.1-4.6s6.1 1 6.1 1z" />
                  <path fill="#422034" d="M432 339.1s-24-.4-26.1 8.1c-2.1 8.4 3.9 11 3.9 11s9.7 1.5 12.4-7c2.7-8.4 13.4-2.5 13.4-2.5s4 3.9 3.5 1.8c-.4-2-2.4-11.6-7.1-11.4z" />
                  <path fill="#422034" d="M443.5 339s-8.8-4.1-16.3 2.1c0 0-9.6 6-4.4 5.7 5.2-.4 19.5-2.3 20.7-7.8zM428.4 364s6.8-3.7 8.4-1.8c0 0-2.2 6.2-8.4 1.8z" />
                  <path fill="none" stroke="#190A12" stroke-miterlimit="10" d="M386 311.1s22.9-5.4 31 9.5c0 0 22.9 35.3 17.6 42.5 0 0-8.6 11.1-20 11.1" />
                  <path fill="#FFF" d="M417.1 348.6c.5 1.8.3 3.5-.6 3.8-.9.3-2-.9-2.6-2.6s-.3-3.5.6-3.8c.9-.3 2 .8 2.6 2.6z" />
                  <ellipse transform="matrix(.947 -.321 .321 .947 -87.535 157.672)" fill="#FFF" cx="435.3" cy="344.8" rx="1" ry="1.8" />
                  <path fill="#54404C" d="M368.2 342.2s-3.7-14 7-22.6c10.8-8.5 12.8-8.4 12.8-4s-16.7 12-15.8 23.4c.9 11.4-4 3.2-4 3.2z" />
                  <ellipse transform="matrix(.805 -.594 .594 .805 -111.995 307.255)" opacity=".33" fill="#AA9BA5" cx="410.9" cy="323.8" rx="4" ry="6.2" />
                  <path fill="#422034" d="M357 353.7s6.9-9.4 18.3-7.2c0 0 13.5.8 7.9 3.4s-21.8 9.1-26.2 3.8z" />
                  <path fill="#49333F" d="M357.2 352.8s4.6-6.2 12.1-4.8c0 0 9 .5 5.2 2.3-3.6 1.8-14.4 5.9-17.3 2.5z" />
                  <path fill="none" stroke="#190A12" stroke-miterlimit="10" d="M415.5 312.7s5-16.2 11.1-17.3" />
                  <path fill="none" stroke="#190A12" stroke-width="2" stroke-miterlimit="10" d="M379.2 320.2s-6.3-21.7-20.6-22.6" />
                  <path fill="#422034" d="M405.7 423.3s4.1-5.9 10.3 0c0 0 1.1 5.6-1.7 8.6-2.7 3.1-5.4.8-5.4.8s-6-6.5-3.2-9.4z" />
                  <path fill="#684A5C" d="M391.3 387s14.9-21.2 37.1 0c0 0 3.8 20.1-6 31.1s-19.5 2.8-19.5 2.8-21.5-23.4-11.6-33.9z" />
                  <path fill="none" stroke="#190A12" stroke-miterlimit="10" d="M400.5 379.5s19.8-.5 21.8 10c0 0 8.8 23.1-8.8 34.1" />
                  <path fill="#54404C" d="M391.9 400.6s-2.2-9.1 4.1-14.6 7.5-5.4 7.5-2.6c0 2.9-9.8 7.8-9.3 15.2s-2.3 2-2.3 2z" />
                  <ellipse opacity=".33" fill="#AA9BA5" cx="418.2" cy="398.6" rx="4" ry="6.2" />
                  <ellipse opacity=".43" fill="#422034" cx="409.3" cy="385.2" rx="11.7" ry="6.5" />
                </g>
</svg>